<svg width="50" height="50" viewBox="0 0 50 50" fill="none" xmlns="http://www.w3.org/2000/svg">
<mask id="mask0_1_163" style="mask-type:alpha" maskUnits="userSpaceOnUse" x="0" y="0" width="50" height="50">
<rect width="50" height="50" fill="#D9D9D9"/>
</mask>
<g mask="url(#mask0_1_163)">
<path d="M18.75 43.75C16.4583 43.75 14.4965 42.934 12.8646 41.3021C11.2326 39.6701 10.4167 37.7083 10.4167 35.4167V18.3854C9.20139 17.934 8.20312 17.1788 7.42188 16.1198C6.64062 15.0608 6.25 13.8542 6.25 12.5C6.25 10.7639 6.85764 9.28819 8.07292 8.07292C9.28819 6.85764 10.7639 6.25 12.5 6.25C14.2361 6.25 15.7118 6.85764 16.9271 8.07292C18.1424 9.28819 18.75 10.7639 18.75 12.5C18.75 13.8542 18.3594 15.0608 17.5781 16.1198C16.7969 17.1788 15.7986 17.934 14.5833 18.3854V35.4167C14.5833 36.5625 14.9913 37.5434 15.8073 38.3594C16.6233 39.1753 17.6042 39.5833 18.75 39.5833C19.8958 39.5833 20.8767 39.1753 21.6927 38.3594C22.5087 37.5434 22.9167 36.5625 22.9167 35.4167V14.5833C22.9167 12.2917 23.7326 10.3299 25.3646 8.69792C26.9965 7.06597 28.9583 6.25 31.25 6.25C33.5417 6.25 35.5035 7.06597 37.1354 8.69792C38.7674 10.3299 39.5833 12.2917 39.5833 14.5833V31.6146C40.7986 32.066 41.7969 32.8212 42.5781 33.8802C43.3594 34.9392 43.75 36.1458 43.75 37.5C43.75 39.2361 43.1424 40.7118 41.9271 41.9271C40.7118 43.1424 39.2361 43.75 37.5 43.75C35.7639 43.75 34.2882 43.1424 33.0729 41.9271C31.8576 40.7118 31.25 39.2361 31.25 37.5C31.25 36.1458 31.6406 34.9306 32.4219 33.8542C33.2031 32.7778 34.2014 32.0312 35.4167 31.6146V14.5833C35.4167 13.4375 35.0087 12.4566 34.1927 11.6406C33.3767 10.8247 32.3958 10.4167 31.25 10.4167C30.1042 10.4167 29.1233 10.8247 28.3073 11.6406C27.4913 12.4566 27.0833 13.4375 27.0833 14.5833V35.4167C27.0833 37.7083 26.2674 39.6701 24.6354 41.3021C23.0035 42.934 21.0417 43.75 18.75 43.75ZM12.5 14.5833C13.0903 14.5833 13.5851 14.3837 13.9844 13.9844C14.3837 13.5851 14.5833 13.0903 14.5833 12.5C14.5833 11.9097 14.3837 11.4149 13.9844 11.0156C13.5851 10.6163 13.0903 10.4167 12.5 10.4167C11.9097 10.4167 11.4149 10.6163 11.0156 11.0156C10.6163 11.4149 10.4167 11.9097 10.4167 12.5C10.4167 13.0903 10.6163 13.5851 11.0156 13.9844C11.4149 14.3837 11.9097 14.5833 12.5 14.5833ZM37.5 39.5833C38.0903 39.5833 38.5851 39.3837 38.9844 38.9844C39.3837 38.5851 39.5833 38.0903 39.5833 37.5C39.5833 36.9097 39.3837 36.4149 38.9844 36.0156C38.5851 35.6163 38.0903 35.4167 37.5 35.4167C36.9097 35.4167 36.4149 35.6163 36.0156 36.0156C35.6163 36.4149 35.4167 36.9097 35.4167 37.5C35.4167 38.0903 35.6163 38.5851 36.0156 38.9844C36.4149 39.3837 36.9097 39.5833 37.5 39.5833Z" fill="#005691"/>
</g>
</svg>
