<svg width="68" height="68" viewBox="0 0 68 68" fill="none" xmlns="http://www.w3.org/2000/svg">
<path d="M0.666809 17.3333V0.666626H17.3335V7.33329H7.33348V17.3333H0.666809ZM0.666809 67.3333V50.6666H7.33348V60.6666H17.3335V67.3333H0.666809ZM50.6668 67.3333V60.6666H60.6668V50.6666H67.3335V67.3333H50.6668ZM60.6668 17.3333V7.33329H50.6668V0.666626H67.3335V17.3333H60.6668ZM52.3335 52.3333H57.3335V57.3333H52.3335V52.3333ZM52.3335 42.3333H57.3335V47.3333H52.3335V42.3333ZM47.3335 47.3333H52.3335V52.3333H47.3335V47.3333ZM42.3335 52.3333H47.3335V57.3333H42.3335V52.3333ZM37.3335 47.3333H42.3335V52.3333H37.3335V47.3333ZM47.3335 37.3333H52.3335V42.3333H47.3335V37.3333ZM42.3335 42.3333H47.3335V47.3333H42.3335V42.3333ZM37.3335 37.3333H42.3335V42.3333H37.3335V37.3333ZM57.3335 10.6666V30.6666H37.3335V10.6666H57.3335ZM30.6668 37.3333V57.3333H10.6668V37.3333H30.6668ZM30.6668 10.6666V30.6666H10.6668V10.6666H30.6668ZM25.6668 52.3333V42.3333H15.6668V52.3333H25.6668ZM25.6668 25.6666V15.6666H15.6668V25.6666H25.6668ZM52.3335 25.6666V15.6666H42.3335V25.6666H52.3335Z" fill="#1C1B1F"/>
</svg>
