<svg width="51" height="51" viewBox="0 0 51 51" fill="none" xmlns="http://www.w3.org/2000/svg">
<path fill-rule="evenodd" clip-rule="evenodd" d="M25.2605 0C11.3293 0 0 11.3293 0 25.2605C0 39.1857 11.3293 50.5209 25.2605 50.5209C39.1857 50.5209 50.5209 39.1916 50.5209 25.2605C50.515 11.3293 39.1857 0 25.2605 0Z" fill="#005691"/>
<path fill-rule="evenodd" clip-rule="evenodd" d="M25.2605 5.35046C14.2835 5.35046 5.35046 14.2835 5.35046 25.2605C5.35046 36.2374 14.2835 45.1705 25.2605 45.1705C36.2374 45.1705 45.1705 36.2374 45.1705 25.2605C45.1705 14.2777 36.2374 5.35046 25.2605 5.35046ZM12.8681 34.7926C10.9887 34.7926 9.46168 33.2656 9.46168 31.3862C9.46168 29.5068 10.9887 27.9797 12.8681 27.9797C14.7475 27.9797 16.2745 29.5068 16.2745 31.3862C16.2745 33.2656 14.7475 34.7926 12.8681 34.7926ZM11.3411 17.5843C11.3411 14.5889 13.7784 12.1516 16.7738 12.1516C19.7691 12.1516 22.2064 14.5889 22.2064 17.5843C22.2064 20.5796 19.7691 23.0169 16.7738 23.0169C13.7784 23.0169 11.3411 20.5796 11.3411 17.5843ZM25.5835 42.9446C22.5882 42.9446 20.1508 40.5072 20.1508 37.5119C20.1508 34.5166 22.5882 32.0792 25.5835 32.0792C28.5788 32.0792 31.0162 34.5166 31.0162 37.5119C31.0103 40.5072 28.5788 42.9446 25.5835 42.9446ZM28.5671 17.5843C28.5671 14.5889 31.0044 12.1516 33.9997 12.1516C36.995 12.1516 39.4324 14.5889 39.4324 17.5843C39.4324 20.5796 36.995 23.0169 33.9997 23.0169C31.0044 23.0169 28.5671 20.5796 28.5671 17.5843ZM37.6528 34.7926C35.7734 34.7926 34.2464 33.2656 34.2464 31.3862C34.2464 29.5068 35.7734 27.9797 37.6528 27.9797C39.5322 27.9797 41.0593 29.5068 41.0593 31.3862C41.0593 33.2656 39.5322 34.7926 37.6528 34.7926Z" fill="white"/>
<path fill-rule="evenodd" clip-rule="evenodd" d="M33.9996 15.7166C32.9718 15.7166 32.1378 16.5506 32.1378 17.5784C32.1378 18.6062 32.9718 19.4402 33.9996 19.4402C35.0274 19.4402 35.8614 18.6062 35.8614 17.5784C35.8614 16.5565 35.0274 15.7166 33.9996 15.7166Z" fill="white"/>
<path fill-rule="evenodd" clip-rule="evenodd" d="M25.5835 35.6501C24.5557 35.6501 23.7217 36.4841 23.7217 37.5119C23.7217 38.5397 24.5557 39.3737 25.5835 39.3737C26.6113 39.3737 27.4511 38.5397 27.4511 37.5119C27.4453 36.4899 26.6113 35.6501 25.5835 35.6501Z" fill="white"/>
<path fill-rule="evenodd" clip-rule="evenodd" d="M12.8681 30.2057C12.2162 30.2057 11.6876 30.7343 11.6876 31.3862C11.6876 32.0381 12.2162 32.5667 12.8681 32.5667C13.52 32.5667 14.0486 32.0381 14.0486 31.3862C14.0428 30.7343 13.5142 30.2057 12.8681 30.2057Z" fill="white"/>
<path fill-rule="evenodd" clip-rule="evenodd" d="M16.7678 15.7166C15.74 15.7166 14.906 16.5506 14.906 17.5784C14.906 18.6062 15.74 19.4402 16.7678 19.4402C17.7956 19.4402 18.6296 18.6062 18.6296 17.5784C18.6355 16.5565 17.8015 15.7166 16.7678 15.7166Z" fill="white"/>
<path fill-rule="evenodd" clip-rule="evenodd" d="M37.6528 30.2057C37.0009 30.2057 36.4723 30.7343 36.4723 31.3862C36.4723 32.0381 37.0009 32.5667 37.6528 32.5667C38.3047 32.5667 38.8333 32.0381 38.8333 31.3862C38.8333 30.7343 38.3047 30.2057 37.6528 30.2057Z" fill="white"/>
</svg>
