<svg width="50" height="50" viewBox="0 0 50 50" fill="none" xmlns="http://www.w3.org/2000/svg">
<mask id="mask0_1_144" style="mask-type:alpha" maskUnits="userSpaceOnUse" x="0" y="0" width="50" height="50">
<rect width="50" height="50" fill="#D9D9D9"/>
</mask>
<g mask="url(#mask0_1_144)">
<path d="M24.9998 43.7501L21.979 41.0418C18.4721 37.882 15.5728 35.1564 13.2811 32.8647C10.9894 30.573 9.1665 28.5157 7.81234 26.6928C6.45817 24.8699 5.51199 23.1945 4.9738 21.6668C4.4356 20.139 4.1665 18.5765 4.1665 16.9793C4.1665 13.7154 5.26025 10.9897 7.44775 8.80219C9.63525 6.61469 12.3609 5.52094 15.6248 5.52094C17.4304 5.52094 19.1491 5.90288 20.7811 6.66677C22.413 7.43066 23.8193 8.50705 24.9998 9.89594C26.1804 8.50705 27.5866 7.43066 29.2186 6.66677C30.8505 5.90288 32.5693 5.52094 34.3748 5.52094C37.6387 5.52094 40.3644 6.61469 42.5519 8.80219C44.7394 10.9897 45.8332 13.7154 45.8332 16.9793C45.8332 18.5765 45.5641 20.139 45.0259 21.6668C44.4877 23.1945 43.5415 24.8699 42.1873 26.6928C40.8332 28.5157 39.0103 30.573 36.7186 32.8647C34.4269 35.1564 31.5276 37.882 28.0207 41.0418L24.9998 43.7501ZM24.9998 38.1251C28.3332 35.139 31.0762 32.5782 33.229 30.4428C35.3818 28.3074 37.0832 26.4498 38.3332 24.8699C39.5832 23.29 40.4512 21.8838 40.9373 20.6511C41.4234 19.4185 41.6665 18.1945 41.6665 16.9793C41.6665 14.8959 40.9721 13.1598 39.5832 11.7709C38.1943 10.382 36.4582 9.6876 34.3748 9.6876C32.7429 9.6876 31.2325 10.1477 29.8436 11.0678C28.4547 11.9879 27.4998 13.1598 26.979 14.5834H23.0207C22.4998 13.1598 21.545 11.9879 20.1561 11.0678C18.7672 10.1477 17.2568 9.6876 15.6248 9.6876C13.5415 9.6876 11.8054 10.382 10.4165 11.7709C9.02761 13.1598 8.33317 14.8959 8.33317 16.9793C8.33317 18.1945 8.57623 19.4185 9.06234 20.6511C9.54845 21.8838 10.4165 23.29 11.6665 24.8699C12.9165 26.4498 14.6179 28.3074 16.7707 30.4428C18.9234 32.5782 21.6665 35.139 24.9998 38.1251Z" fill="#005691"/>
</g>
</svg>
