<svg width="60" height="72" viewBox="0 0 60 72" fill="none" xmlns="http://www.w3.org/2000/svg">
<path d="M30 71.9999C26 68.2221 21.4167 65.3333 16.25 63.3333C11.0833 61.3333 5.66667 60.3333 0 60.3333V23.6666C5.61111 23.6666 11 24.6805 16.1667 26.7083C21.3333 28.736 25.9444 31.6666 30 35.4999C34.0556 31.6666 38.6667 28.736 43.8333 26.7083C49 24.6805 54.3889 23.6666 60 23.6666V60.3333C54.2778 60.3333 48.8472 61.3333 43.7083 63.3333C38.5694 65.3333 34 68.2221 30 71.9999ZM30 63.3333C33.5 60.7221 37.2222 58.6388 41.1667 57.0833C45.1111 55.5277 49.1667 54.4999 53.3333 53.9999V30.9999C49.2778 31.7221 45.2917 33.1805 41.375 35.3749C37.4583 37.5694 33.6667 40.4999 30 44.1666C26.3333 40.4999 22.5417 37.5694 18.625 35.3749C14.7083 33.1805 10.7222 31.7221 6.66667 30.9999V53.9999C10.8333 54.4999 14.8889 55.5277 18.8333 57.0833C22.7778 58.6388 26.5 60.7221 30 63.3333ZM30 26.9999C26.3333 26.9999 23.1944 25.6944 20.5833 23.0833C17.9722 20.4721 16.6667 17.3333 16.6667 13.6666C16.6667 9.99992 17.9722 6.86103 20.5833 4.24992C23.1944 1.63881 26.3333 0.333252 30 0.333252C33.6667 0.333252 36.8056 1.63881 39.4167 4.24992C42.0278 6.86103 43.3333 9.99992 43.3333 13.6666C43.3333 17.3333 42.0278 20.4721 39.4167 23.0833C36.8056 25.6944 33.6667 26.9999 30 26.9999ZM30 20.3333C31.8333 20.3333 33.4028 19.6805 34.7083 18.3749C36.0139 17.0694 36.6667 15.4999 36.6667 13.6666C36.6667 11.8333 36.0139 10.2638 34.7083 8.95825C33.4028 7.6527 31.8333 6.99992 30 6.99992C28.1667 6.99992 26.5972 7.6527 25.2917 8.95825C23.9861 10.2638 23.3333 11.8333 23.3333 13.6666C23.3333 15.4999 23.9861 17.0694 25.2917 18.3749C26.5972 19.6805 28.1667 20.3333 30 20.3333Z" fill="#1C1B1F"/>
</svg>
