<svg width="53" height="47" viewBox="0 0 53 47" fill="none" xmlns="http://www.w3.org/2000/svg">
<path fill-rule="evenodd" clip-rule="evenodd" d="M51.086 9.93151C48.5782 3.71184 43.8973 0 38.5645 0H14.9485C8.65247 0 3.77187 5.29759 1.72214 10.5482C0.283216 14.2365 -0.257117 18.1716 0.112892 22.2534C1.31689 35.562 11.9003 45.7402 25.2735 46.4508C25.7668 46.4743 26.2543 46.4919 26.7359 46.4919C33.4255 46.4919 39.6745 44.0369 44.467 39.4911C49.8174 34.4167 52.8891 27.0753 52.8891 19.3462C52.8891 16.0161 52.3018 12.9386 51.086 9.93151Z" fill="#005691"/>
<path fill-rule="evenodd" clip-rule="evenodd" d="M33.0437 12.3101C33.913 12.3101 34.6177 11.6053 34.6177 10.7361C34.6177 9.86689 33.913 9.16211 33.0437 9.16211C32.1745 9.16211 31.4697 9.86689 31.4697 10.7361C31.4697 11.6053 32.1745 12.3101 33.0437 12.3101Z" fill="white"/>
<path fill-rule="evenodd" clip-rule="evenodd" d="M19.506 12.3101C20.3752 12.3101 21.08 11.6053 21.08 10.7361C21.08 9.86689 20.3752 9.16211 19.506 9.16211C18.6368 9.16211 17.932 9.86689 17.932 10.7361C17.932 11.6053 18.6368 12.3101 19.506 12.3101Z" fill="white"/>
<path fill-rule="evenodd" clip-rule="evenodd" d="M26.4423 18.1422C25.3323 18.1422 24.4337 19.0408 24.4337 20.1508C24.4337 21.2609 25.3323 22.1595 26.4423 22.1595C27.5524 22.1595 28.451 21.2609 28.451 20.1508C28.451 19.0408 27.5524 18.1422 26.4423 18.1422Z" fill="white"/>
<path d="M12.793 22.1595C13.9024 22.1595 14.8017 21.2602 14.8017 20.1508C14.8017 19.0415 13.9024 18.1422 12.793 18.1422C11.6837 18.1422 10.7844 19.0415 10.7844 20.1508C10.7844 21.2602 11.6837 22.1595 12.793 22.1595Z" fill="white"/>
<path d="M19.4826 33.7589C20.5919 33.7589 21.4912 32.8596 21.4912 31.7503C21.4912 30.6409 20.5919 29.7416 19.4826 29.7416C18.3733 29.7416 17.474 30.6409 17.474 31.7503C17.474 32.8596 18.3733 33.7589 19.4826 33.7589Z" fill="white"/>
<path fill-rule="evenodd" clip-rule="evenodd" d="M40.0975 18.1422C38.9875 18.1422 38.0889 19.0408 38.0889 20.1508C38.0889 21.2609 38.9875 22.1595 40.0975 22.1595C41.2075 22.1595 42.1061 21.2609 42.1061 20.1508C42.1061 19.0408 41.2016 18.1422 40.0975 18.1422Z" fill="white"/>
<path fill-rule="evenodd" clip-rule="evenodd" d="M46.0586 11.9578C45.2657 9.99028 42.9458 5.42096 38.5645 5.42096H14.9485C11.2308 5.42096 8.10626 9.09756 6.77306 12.5157C5.62779 15.4523 5.21667 18.477 5.51033 21.7601C6.46765 32.3611 14.9015 40.4661 25.5613 41.0358C31.3052 41.3412 36.6909 39.3972 40.7375 35.5561C45.0132 31.4978 47.4682 25.5894 47.4682 19.3462C47.4682 16.7268 47.0101 14.307 46.0586 11.9578ZM33.0437 7.13005C35.0347 7.13005 36.6498 8.74517 36.6498 10.7362C36.6498 12.7272 35.0347 14.3423 33.0437 14.3423C31.0527 14.3423 29.4376 12.7272 29.4376 10.7362C29.4376 8.75104 31.0586 7.13005 33.0437 7.13005ZM19.5061 7.13005C21.4971 7.13005 23.1122 8.74517 23.1122 10.7362C23.1122 12.7272 21.4971 14.3423 19.5061 14.3423C17.5151 14.3423 15.8999 12.7272 15.8999 10.7362C15.8999 8.75104 17.5151 7.13005 19.5061 7.13005ZM7.39561 20.1508C7.39561 17.1732 9.81535 14.7534 12.793 14.7534C15.7707 14.7534 18.1905 17.1732 18.1905 20.1508C18.1905 23.1285 15.7707 25.5483 12.793 25.5483C9.81535 25.5483 7.39561 23.1227 7.39561 20.1508ZM19.4826 37.1478C16.5049 37.1478 14.0851 34.728 14.0851 31.7503C14.0851 28.7726 16.5049 26.3529 19.4826 26.3529C22.4603 26.3529 24.88 28.7726 24.88 31.7503C24.88 34.728 22.4603 37.1478 19.4826 37.1478ZM26.4423 25.5483C23.4646 25.5483 21.0448 23.1285 21.0448 20.1508C21.0448 17.1732 23.4646 14.7534 26.4423 14.7534C29.42 14.7534 31.8397 17.1732 31.8397 20.1508C31.8397 23.1227 29.42 25.5483 26.4423 25.5483ZM33.1318 37.1478C30.1541 37.1478 27.7344 34.728 27.7344 31.7503C27.7344 28.7726 30.1541 26.3529 33.1318 26.3529C36.1095 26.3529 38.5292 28.7726 38.5292 31.7503C38.5292 34.728 36.1095 37.1478 33.1318 37.1478ZM40.0974 25.5483C37.1197 25.5483 34.6999 23.1285 34.6999 20.1508C34.6999 17.1732 37.1197 14.7534 40.0974 14.7534C43.0751 14.7534 45.4948 17.1732 45.4948 20.1508C45.4889 23.1227 43.0692 25.5483 40.0974 25.5483Z" fill="white"/>
<path fill-rule="evenodd" clip-rule="evenodd" d="M33.1318 29.7416C32.0218 29.7416 31.1232 30.6402 31.1232 31.7503C31.1232 32.8603 32.0218 33.7589 33.1318 33.7589C34.2418 33.7589 35.1404 32.8603 35.1404 31.7503C35.1404 30.6402 34.2418 29.7416 33.1318 29.7416Z" fill="white"/>
</svg>
